<?xml version="1.0" standalone="no"?>
<svg
  width="100%"
  height="100%"
  viewBox="-2 -6 52 16"
  preserveAspectRatio="xMidYMid meet"
  xmlns="http://www.w3.org/2000/svg"
  >
  
  
  
  <path stroke="#74838f" stroke-width="0.0375" d="M 0 0 L 1 0" />
  
  
  
  <path stroke="#74838f" stroke-width="0.0375" d="M 1 0 L 2 0" />
  
  
  
  <path stroke="#74838f" stroke-width="0.0375" d="M 2 0 L 3 0" />
  
  
  
  <path stroke="#74838f" stroke-width="0.0375" d="M 3 0 L 4 0" />
  
  
  
  <path stroke="#74838f" stroke-width="0.0375" d="M 4 0 L 5 0" />
  
  
  
  <path stroke="#74838f" stroke-width="0.0375" d="M 5 0 L 6 0" />
  
  
  
  <path stroke="#74838f" stroke-width="0.0375" d="M 6 0 L 7 0" />
  
  
  
  <path stroke="#74838f" stroke-width="0.0375" d="M 6 0 L 7 1" />
  
  
  
  <path stroke="#74838f" stroke-width="0.0375" d="M 7 0 L 8 0" />
  
  
  
  <path stroke="#74838f" stroke-width="0.0375" d="M 8 0 L 9 0" />
  
  
  
  <path stroke="#74838f" stroke-width="0.0375" d="M 9 0 L 10 0" />
  
  
  
  <path stroke="#74838f" stroke-width="0.0375" d="M 10 0 L 11 0" />
  
  
  
  <path stroke="#74838f" stroke-width="0.0375" d="M 11 0 L 12 0" />
  
  
  
  <path stroke="#74838f" stroke-width="0.0375" d="M 12 0 L 13 0" />
  
  
  
  <path stroke="#74838f" stroke-width="0.0375" d="M 13 0 L 14 0" />
  
  
  
  <path stroke="#74838f" stroke-width="0.0375" d="M 14 0 L 15 0" />
  
  
  
  <path stroke="#74838f" stroke-width="0.0375" d="M 14 0 L 15 1" />
  
  
  
  <path stroke="#74838f" stroke-width="0.0375" d="M 15 0 L 16 0" />
  
  
  
  <path stroke="#74838f" stroke-width="0.0375" d="M 16 0 L 17 0" />
  
  
  
  <path stroke="#74838f" stroke-width="0.0375" d="M 17 0 L 18 0" />
  
  
  
  <path stroke="#74838f" stroke-width="0.0375" d="M 18 0 L 19 0" />
  
  
  
  <path stroke="#74838f" stroke-width="0.0375" d="M 19 0 L 20 0" />
  
  
  
  <path stroke="#74838f" stroke-width="0.0375" d="M 20 0 L 21 0" />
  
  
  
  <path stroke="#74838f" stroke-width="0.0375" d="M 21 0 L 22 0" />
  
  
  
  <path stroke="#74838f" stroke-width="0.0375" d="M 22 0 L 23 0" />
  
  
  
  <path stroke="#74838f" stroke-width="0.0375" d="M 22 0 L 23 1" />
  
  
  
  <path stroke="#74838f" stroke-width="0.0375" d="M 23 0 L 24 0" />
  
  
  
  <path stroke="#74838f" stroke-width="0.0375" d="M 24 0 L 25 0" />
  
  
  
  <path stroke="#74838f" stroke-width="0.0375" d="M 25 0 L 26 0" />
  
  
  
  <path stroke="#74838f" stroke-width="0.0375" d="M 26 0 L 27 0" />
  
  
  
  <path stroke="#74838f" stroke-width="0.0375" d="M 27 0 L 28 0" />
  
  
  
  <path stroke="#74838f" stroke-width="0.0375" d="M 28 0 L 29 0" />
  
  
  
  <path stroke="#74838f" stroke-width="0.0375" d="M 29 0 L 30 0" />
  
  
  
  <path stroke="#74838f" stroke-width="0.0375" d="M 30 0 L 31 0" />
  
  
  
  <path stroke="#74838f" stroke-width="0.0375" d="M 30 0 L 31 1" />
  
  
  
  <path stroke="#74838f" stroke-width="0.0375" d="M 31 0 L 32 0" />
  
  
  
  <path stroke="#74838f" stroke-width="0.0375" d="M 32 0 L 33 0" />
  
  
  
  <path stroke="#74838f" stroke-width="0.0375" d="M 33 0 L 34 0" />
  
  
  
  <path stroke="#74838f" stroke-width="0.0375" d="M 34 0 L 35 0" />
  
  
  
  <path stroke="#74838f" stroke-width="0.0375" d="M 35 0 L 36 0" />
  
  
  
  <path stroke="#74838f" stroke-width="0.0375" d="M 36 0 L 37 0" />
  
  
  
  <path stroke="#74838f" stroke-width="0.0375" d="M 37 0 L 38 0" />
  
  
  
  <path stroke="#74838f" stroke-width="0.0375" d="M 38 0 L 39 0" />
  
  
  
  <path stroke="#74838f" stroke-width="0.0375" d="M 38 0 L 39 1" />
  
  
  
  <path stroke="#74838f" stroke-width="0.0375" d="M 39 0 L 40 0" />
  
  
  
  <path stroke="#74838f" stroke-width="0.0375" d="M 40 0 L 41 0" />
  
  
  
  <path stroke="#74838f" stroke-width="0.0375" d="M 41 0 L 42 0" />
  
  
  
  <path stroke="#74838f" stroke-width="0.0375" d="M 42 0 L 43 0" />
  
  
  
  <path stroke="#74838f" stroke-width="0.0375" d="M 43 0 L 44 0" />
  
  
  
  <path stroke="#74838f" stroke-width="0.0375" d="M 44 0 L 45 0" />
  
  
  
  <path stroke="#74838f" stroke-width="0.0375" d="M 45 0 L 46 0" />
  
  
  
  <path stroke="#74838f" stroke-width="0.0375" d="M 46 0 L 47 0" />
  
  
  
  <path stroke="#74838f" stroke-width="0.0375" d="M 46 0 L 47 1" />
  
  
  
  <path stroke="#74838f" stroke-width="0.0375" d="M 47 0 L 48 0" />
  
  
  
  <path stroke="#74838f" stroke-width="0.0375" d="M 1 1 L 2 1" />
  
  
  
  <path stroke="#74838f" stroke-width="0.0375" d="M 2 1 L 2 0" />
  
  
  
  <path stroke="#74838f" stroke-width="0.0375" d="M 5 1 L 6 0" />
  
  
  
  <path stroke="#74838f" stroke-width="0.0375" d="M 7 1 L 8 2" />
  
  
  
  <path stroke="#74838f" stroke-width="0.0375" d="M 9 1 L 10 1" />
  
  
  
  <path stroke="#74838f" stroke-width="0.0375" d="M 10 1 L 10 0" />
  
  
  
  <path stroke="#74838f" stroke-width="0.0375" d="M 13 1 L 14 0" />
  
  
  
  <path stroke="#74838f" stroke-width="0.0375" d="M 15 1 L 16 2" />
  
  
  
  <path stroke="#74838f" stroke-width="0.0375" d="M 17 1 L 18 1" />
  
  
  
  <path stroke="#74838f" stroke-width="0.0375" d="M 18 1 L 18 0" />
  
  
  
  <path stroke="#74838f" stroke-width="0.0375" d="M 21 1 L 22 0" />
  
  
  
  <path stroke="#74838f" stroke-width="0.0375" d="M 23 1 L 24 2" />
  
  
  
  <path stroke="#74838f" stroke-width="0.0375" d="M 25 1 L 26 1" />
  
  
  
  <path stroke="#74838f" stroke-width="0.0375" d="M 26 1 L 26 0" />
  
  
  
  <path stroke="#74838f" stroke-width="0.0375" d="M 29 1 L 30 0" />
  
  
  
  <path stroke="#74838f" stroke-width="0.0375" d="M 31 1 L 32 2" />
  
  
  
  <path stroke="#74838f" stroke-width="0.0375" d="M 33 1 L 34 1" />
  
  
  
  <path stroke="#74838f" stroke-width="0.0375" d="M 34 1 L 34 0" />
  
  
  
  <path stroke="#74838f" stroke-width="0.0375" d="M 37 1 L 38 0" />
  
  
  
  <path stroke="#74838f" stroke-width="0.0375" d="M 39 1 L 40 2" />
  
  
  
  <path stroke="#74838f" stroke-width="0.0375" d="M 41 1 L 42 1" />
  
  
  
  <path stroke="#74838f" stroke-width="0.0375" d="M 42 1 L 42 0" />
  
  
  
  <path stroke="#74838f" stroke-width="0.0375" d="M 45 1 L 46 0" />
  
  
  
  <path stroke="#74838f" stroke-width="0.0375" d="M 47 1 L 48 2" />
  
  
  
  <path stroke="#74838f" stroke-width="0.0375" d="M 0 2 L 1 1" />
  
  
  
  <path stroke="#74838f" stroke-width="0.0375" d="M 0 2 L 1 3" />
  
  
  
  <path stroke="#74838f" stroke-width="0.0375" d="M 4 2 L 5 1" />
  
  
  
  <path stroke="#74838f" stroke-width="0.0375" d="M 8 2 L 9 1" />
  
  
  
  <path stroke="#74838f" stroke-width="0.0375" d="M 8 2 L 9 3" />
  
  
  
  <path stroke="#74838f" stroke-width="0.0375" d="M 12 2 L 13 1" />
  
  
  
  <path stroke="#74838f" stroke-width="0.0375" d="M 16 2 L 17 1" />
  
  
  
  <path stroke="#74838f" stroke-width="0.0375" d="M 16 2 L 17 3" />
  
  
  
  <path stroke="#74838f" stroke-width="0.0375" d="M 20 2 L 21 1" />
  
  
  
  <path stroke="#74838f" stroke-width="0.0375" d="M 24 2 L 25 1" />
  
  
  
  <path stroke="#74838f" stroke-width="0.0375" d="M 24 2 L 25 3" />
  
  
  
  <path stroke="#74838f" stroke-width="0.0375" d="M 28 2 L 29 1" />
  
  
  
  <path stroke="#74838f" stroke-width="0.0375" d="M 32 2 L 33 1" />
  
  
  
  <path stroke="#74838f" stroke-width="0.0375" d="M 32 2 L 33 3" />
  
  
  
  <path stroke="#74838f" stroke-width="0.0375" d="M 36 2 L 37 1" />
  
  
  
  <path stroke="#74838f" stroke-width="0.0375" d="M 40 2 L 41 1" />
  
  
  
  <path stroke="#74838f" stroke-width="0.0375" d="M 40 2 L 41 3" />
  
  
  
  <path stroke="#74838f" stroke-width="0.0375" d="M 44 2 L 45 1" />
  
  
  
  <path stroke="#74838f" stroke-width="0.0375" d="M 1 3 L 2 4" />
  
  
  
  <path stroke="#74838f" stroke-width="0.0375" d="M 3 3 L 4 2" />
  
  
  
  <path stroke="#74838f" stroke-width="0.0375" d="M 6 3 L 7 3" />
  
  
  
  <path stroke="#74838f" stroke-width="0.0375" d="M 7 3 L 8 2" />
  
  
  
  <path stroke="#74838f" stroke-width="0.0375" d="M 9 3 L 10 4" />
  
  
  
  <path stroke="#74838f" stroke-width="0.0375" d="M 11 3 L 12 2" />
  
  
  
  <path stroke="#74838f" stroke-width="0.0375" d="M 14 3 L 15 3" />
  
  
  
  <path stroke="#74838f" stroke-width="0.0375" d="M 15 3 L 16 2" />
  
  
  
  <path stroke="#74838f" stroke-width="0.0375" d="M 17 3 L 18 4" />
  
  
  
  <path stroke="#74838f" stroke-width="0.0375" d="M 19 3 L 20 2" />
  
  
  
  <path stroke="#74838f" stroke-width="0.0375" d="M 22 3 L 23 3" />
  
  
  
  <path stroke="#74838f" stroke-width="0.0375" d="M 23 3 L 24 2" />
  
  
  
  <path stroke="#74838f" stroke-width="0.0375" d="M 25 3 L 26 4" />
  
  
  
  <path stroke="#74838f" stroke-width="0.0375" d="M 27 3 L 28 2" />
  
  
  
  <path stroke="#74838f" stroke-width="0.0375" d="M 30 3 L 31 3" />
  
  
  
  <path stroke="#74838f" stroke-width="0.0375" d="M 31 3 L 32 2" />
  
  
  
  <path stroke="#74838f" stroke-width="0.0375" d="M 33 3 L 34 4" />
  
  
  
  <path stroke="#74838f" stroke-width="0.0375" d="M 35 3 L 36 2" />
  
  
  
  <path stroke="#74838f" stroke-width="0.0375" d="M 38 3 L 39 3" />
  
  
  
  <path stroke="#74838f" stroke-width="0.0375" d="M 39 3 L 40 2" />
  
  
  
  <path stroke="#74838f" stroke-width="0.0375" d="M 41 3 L 42 4" />
  
  
  
  <path stroke="#74838f" stroke-width="0.0375" d="M 43 3 L 44 2" />
  
  
  
  <path stroke="#74838f" stroke-width="0.0375" d="M 46 3 L 47 3" />
  
  
  
  <path stroke="#74838f" stroke-width="0.0375" d="M 47 3 L 48 2" />
  
  
  
  <path stroke="#74838f" stroke-width="0.0375" d="M 0 4 L 1 4" />
  
  
  
  <path stroke="#74838f" stroke-width="0.0375" d="M 1 4 L 2 4" />
  
  
  
  <path stroke="#74838f" stroke-width="0.0375" d="M 2 4 L 3 3" />
  
  
  
  <path stroke="#74838f" stroke-width="0.0375" d="M 2 4 L 3 4" />
  
  
  
  <path stroke="#74838f" stroke-width="0.0375" d="M 3 4 L 4 4" />
  
  
  
  <path stroke="#74838f" stroke-width="0.0375" d="M 4 4 L 5 4" />
  
  
  
  <path stroke="#74838f" stroke-width="0.0375" d="M 5 4 L 6 4" />
  
  
  
  <path stroke="#74838f" stroke-width="0.0375" d="M 6 4 L 6 3" />
  
  
  
  <path stroke="#74838f" stroke-width="0.0375" d="M 6 4 L 7 4" />
  
  
  
  <path stroke="#74838f" stroke-width="0.0375" d="M 7 4 L 8 4" />
  
  
  
  <path stroke="#74838f" stroke-width="0.0375" d="M 8 4 L 9 4" />
  
  
  
  <path stroke="#74838f" stroke-width="0.0375" d="M 9 4 L 10 4" />
  
  
  
  <path stroke="#74838f" stroke-width="0.0375" d="M 10 4 L 11 3" />
  
  
  
  <path stroke="#74838f" stroke-width="0.0375" d="M 10 4 L 11 4" />
  
  
  
  <path stroke="#74838f" stroke-width="0.0375" d="M 11 4 L 12 4" />
  
  
  
  <path stroke="#74838f" stroke-width="0.0375" d="M 12 4 L 13 4" />
  
  
  
  <path stroke="#74838f" stroke-width="0.0375" d="M 13 4 L 14 4" />
  
  
  
  <path stroke="#74838f" stroke-width="0.0375" d="M 14 4 L 14 3" />
  
  
  
  <path stroke="#74838f" stroke-width="0.0375" d="M 14 4 L 15 4" />
  
  
  
  <path stroke="#74838f" stroke-width="0.0375" d="M 15 4 L 16 4" />
  
  
  
  <path stroke="#74838f" stroke-width="0.0375" d="M 16 4 L 17 4" />
  
  
  
  <path stroke="#74838f" stroke-width="0.0375" d="M 17 4 L 18 4" />
  
  
  
  <path stroke="#74838f" stroke-width="0.0375" d="M 18 4 L 19 3" />
  
  
  
  <path stroke="#74838f" stroke-width="0.0375" d="M 18 4 L 19 4" />
  
  
  
  <path stroke="#74838f" stroke-width="0.0375" d="M 19 4 L 20 4" />
  
  
  
  <path stroke="#74838f" stroke-width="0.0375" d="M 20 4 L 21 4" />
  
  
  
  <path stroke="#74838f" stroke-width="0.0375" d="M 21 4 L 22 4" />
  
  
  
  <path stroke="#74838f" stroke-width="0.0375" d="M 22 4 L 22 3" />
  
  
  
  <path stroke="#74838f" stroke-width="0.0375" d="M 22 4 L 23 4" />
  
  
  
  <path stroke="#74838f" stroke-width="0.0375" d="M 23 4 L 24 4" />
  
  
  
  <path stroke="#74838f" stroke-width="0.0375" d="M 24 4 L 25 4" />
  
  
  
  <path stroke="#74838f" stroke-width="0.0375" d="M 25 4 L 26 4" />
  
  
  
  <path stroke="#74838f" stroke-width="0.0375" d="M 26 4 L 27 3" />
  
  
  
  <path stroke="#74838f" stroke-width="0.0375" d="M 26 4 L 27 4" />
  
  
  
  <path stroke="#74838f" stroke-width="0.0375" d="M 27 4 L 28 4" />
  
  
  
  <path stroke="#74838f" stroke-width="0.0375" d="M 28 4 L 29 4" />
  
  
  
  <path stroke="#74838f" stroke-width="0.0375" d="M 29 4 L 30 4" />
  
  
  
  <path stroke="#74838f" stroke-width="0.0375" d="M 30 4 L 30 3" />
  
  
  
  <path stroke="#74838f" stroke-width="0.0375" d="M 30 4 L 31 4" />
  
  
  
  <path stroke="#74838f" stroke-width="0.0375" d="M 31 4 L 32 4" />
  
  
  
  <path stroke="#74838f" stroke-width="0.0375" d="M 32 4 L 33 4" />
  
  
  
  <path stroke="#74838f" stroke-width="0.0375" d="M 33 4 L 34 4" />
  
  
  
  <path stroke="#74838f" stroke-width="0.0375" d="M 34 4 L 35 3" />
  
  
  
  <path stroke="#74838f" stroke-width="0.0375" d="M 34 4 L 35 4" />
  
  
  
  <path stroke="#74838f" stroke-width="0.0375" d="M 35 4 L 36 4" />
  
  
  
  <path stroke="#74838f" stroke-width="0.0375" d="M 36 4 L 37 4" />
  
  
  
  <path stroke="#74838f" stroke-width="0.0375" d="M 37 4 L 38 4" />
  
  
  
  <path stroke="#74838f" stroke-width="0.0375" d="M 38 4 L 38 3" />
  
  
  
  <path stroke="#74838f" stroke-width="0.0375" d="M 38 4 L 39 4" />
  
  
  
  <path stroke="#74838f" stroke-width="0.0375" d="M 39 4 L 40 4" />
  
  
  
  <path stroke="#74838f" stroke-width="0.0375" d="M 40 4 L 41 4" />
  
  
  
  <path stroke="#74838f" stroke-width="0.0375" d="M 41 4 L 42 4" />
  
  
  
  <path stroke="#74838f" stroke-width="0.0375" d="M 42 4 L 43 3" />
  
  
  
  <path stroke="#74838f" stroke-width="0.0375" d="M 42 4 L 43 4" />
  
  
  
  <path stroke="#74838f" stroke-width="0.0375" d="M 43 4 L 44 4" />
  
  
  
  <path stroke="#74838f" stroke-width="0.0375" d="M 44 4 L 45 4" />
  
  
  
  <path stroke="#74838f" stroke-width="0.0375" d="M 45 4 L 46 4" />
  
  
  
  <path stroke="#74838f" stroke-width="0.0375" d="M 46 4 L 46 3" />
  
  
  
  <path stroke="#74838f" stroke-width="0.0375" d="M 46 4 L 47 4" />
  
  
  
  <path stroke="#74838f" stroke-width="0.0375" d="M 47 4 L 48 4" />
  
  <path stroke="#333333" d="M 20 -2 L 28 6" stroke-dasharray="0.1 0.1" stroke-linejoin="round" stroke-width="0.0375" fill="none" />
  <text 
    x="24"
    y="8"
    font-family="-apple-system, system-ui, BlinkMacSystemFont, Roboto"
    dominant-baseline="middle"
    text-anchor="middle"
    font-size="5%"
    fill="#74838f"
    font-weight="600"
    >
    TR(0) Period(8)
  </text>

</svg>

