<?xml version="1.0" standalone="no"?>
<svg
  width="100%"
  height="100%"
  viewBox="-2 -6 52 24"
  preserveAspectRatio="xMidYMid meet"
  xmlns="http://www.w3.org/2000/svg"
  >
  
  
  
  <path stroke="#74838f" stroke-width="0.0375" d="M 0 0 L 1 0" />
  
  
  
  <path stroke="#74838f" stroke-width="0.0375" d="M 1 0 L 2 0" />
  
  
  
  <path stroke="#74838f" stroke-width="0.0375" d="M 2 0 L 3 0" />
  
  
  
  <path stroke="#74838f" stroke-width="0.0375" d="M 3 0 L 4 0" />
  
  
  
  <path stroke="#74838f" stroke-width="0.0375" d="M 4 0 L 5 0" />
  
  
  
  <path stroke="#74838f" stroke-width="0.0375" d="M 5 0 L 6 0" />
  
  
  
  <path stroke="#74838f" stroke-width="0.0375" d="M 6 0 L 7 0" />
  
  
  
  <path stroke="#74838f" stroke-width="0.0375" d="M 7 0 L 8 0" />
  
  
  
  <path stroke="#74838f" stroke-width="0.0375" d="M 8 0 L 9 0" />
  
  
  
  <path stroke="#74838f" stroke-width="0.0375" d="M 9 0 L 10 0" />
  
  
  
  <path stroke="#74838f" stroke-width="0.0375" d="M 10 0 L 11 0" />
  
  
  
  <path stroke="#74838f" stroke-width="0.0375" d="M 10 0 L 11 1" />
  
  
  
  <path stroke="#74838f" stroke-width="0.0375" d="M 11 0 L 12 0" />
  
  
  
  <path stroke="#74838f" stroke-width="0.0375" d="M 12 0 L 13 0" />
  
  
  
  <path stroke="#74838f" stroke-width="0.0375" d="M 13 0 L 14 0" />
  
  
  
  <path stroke="#74838f" stroke-width="0.0375" d="M 14 0 L 15 0" />
  
  
  
  <path stroke="#74838f" stroke-width="0.0375" d="M 15 0 L 16 0" />
  
  
  
  <path stroke="#74838f" stroke-width="0.0375" d="M 16 0 L 17 0" />
  
  
  
  <path stroke="#74838f" stroke-width="0.0375" d="M 17 0 L 18 0" />
  
  
  
  <path stroke="#74838f" stroke-width="0.0375" d="M 18 0 L 19 0" />
  
  
  
  <path stroke="#74838f" stroke-width="0.0375" d="M 19 0 L 20 0" />
  
  
  
  <path stroke="#74838f" stroke-width="0.0375" d="M 20 0 L 21 0" />
  
  
  
  <path stroke="#74838f" stroke-width="0.0375" d="M 21 0 L 22 0" />
  
  
  
  <path stroke="#74838f" stroke-width="0.0375" d="M 22 0 L 23 0" />
  
  
  
  <path stroke="#74838f" stroke-width="0.0375" d="M 22 0 L 23 1" />
  
  
  
  <path stroke="#74838f" stroke-width="0.0375" d="M 23 0 L 24 0" />
  
  
  
  <path stroke="#74838f" stroke-width="0.0375" d="M 24 0 L 25 0" />
  
  
  
  <path stroke="#74838f" stroke-width="0.0375" d="M 25 0 L 26 0" />
  
  
  
  <path stroke="#74838f" stroke-width="0.0375" d="M 26 0 L 27 0" />
  
  
  
  <path stroke="#74838f" stroke-width="0.0375" d="M 27 0 L 28 0" />
  
  
  
  <path stroke="#74838f" stroke-width="0.0375" d="M 28 0 L 29 0" />
  
  
  
  <path stroke="#74838f" stroke-width="0.0375" d="M 29 0 L 30 0" />
  
  
  
  <path stroke="#74838f" stroke-width="0.0375" d="M 30 0 L 31 0" />
  
  
  
  <path stroke="#74838f" stroke-width="0.0375" d="M 31 0 L 32 0" />
  
  
  
  <path stroke="#74838f" stroke-width="0.0375" d="M 32 0 L 33 0" />
  
  
  
  <path stroke="#74838f" stroke-width="0.0375" d="M 33 0 L 34 0" />
  
  
  
  <path stroke="#74838f" stroke-width="0.0375" d="M 34 0 L 35 0" />
  
  
  
  <path stroke="#74838f" stroke-width="0.0375" d="M 34 0 L 35 1" />
  
  
  
  <path stroke="#74838f" stroke-width="0.0375" d="M 35 0 L 36 0" />
  
  
  
  <path stroke="#74838f" stroke-width="0.0375" d="M 36 0 L 37 0" />
  
  
  
  <path stroke="#74838f" stroke-width="0.0375" d="M 37 0 L 38 0" />
  
  
  
  <path stroke="#74838f" stroke-width="0.0375" d="M 38 0 L 39 0" />
  
  
  
  <path stroke="#74838f" stroke-width="0.0375" d="M 39 0 L 40 0" />
  
  
  
  <path stroke="#74838f" stroke-width="0.0375" d="M 40 0 L 41 0" />
  
  
  
  <path stroke="#74838f" stroke-width="0.0375" d="M 41 0 L 42 0" />
  
  
  
  <path stroke="#74838f" stroke-width="0.0375" d="M 42 0 L 43 0" />
  
  
  
  <path stroke="#74838f" stroke-width="0.0375" d="M 43 0 L 44 0" />
  
  
  
  <path stroke="#74838f" stroke-width="0.0375" d="M 44 0 L 45 0" />
  
  
  
  <path stroke="#74838f" stroke-width="0.0375" d="M 45 0 L 46 0" />
  
  
  
  <path stroke="#74838f" stroke-width="0.0375" d="M 46 0 L 47 0" />
  
  
  
  <path stroke="#74838f" stroke-width="0.0375" d="M 46 0 L 47 1" />
  
  
  
  <path stroke="#74838f" stroke-width="0.0375" d="M 47 0 L 48 0" />
  
  
  
  <path stroke="#74838f" stroke-width="0.0375" d="M 3 1 L 4 1" />
  
  
  
  <path stroke="#74838f" stroke-width="0.0375" d="M 4 1 L 5 2" />
  
  
  
  <path stroke="#74838f" stroke-width="0.0375" d="M 8 1 L 8 0" />
  
  
  
  <path stroke="#74838f" stroke-width="0.0375" d="M 8 1 L 9 0" />
  
  
  
  <path stroke="#74838f" stroke-width="0.0375" d="M 9 1 L 9 0" />
  
  
  
  <path stroke="#74838f" stroke-width="0.0375" d="M 10 1 L 10 0" />
  
  
  
  <path stroke="#74838f" stroke-width="0.0375" d="M 11 1 L 11 0" />
  
  
  
  <path stroke="#74838f" stroke-width="0.0375" d="M 15 1 L 16 1" />
  
  
  
  <path stroke="#74838f" stroke-width="0.0375" d="M 16 1 L 17 2" />
  
  
  
  <path stroke="#74838f" stroke-width="0.0375" d="M 20 1 L 20 0" />
  
  
  
  <path stroke="#74838f" stroke-width="0.0375" d="M 20 1 L 21 0" />
  
  
  
  <path stroke="#74838f" stroke-width="0.0375" d="M 21 1 L 21 0" />
  
  
  
  <path stroke="#74838f" stroke-width="0.0375" d="M 22 1 L 22 0" />
  
  
  
  <path stroke="#74838f" stroke-width="0.0375" d="M 23 1 L 23 0" />
  
  
  
  <path stroke="#74838f" stroke-width="0.0375" d="M 27 1 L 28 1" />
  
  
  
  <path stroke="#74838f" stroke-width="0.0375" d="M 28 1 L 29 2" />
  
  
  
  <path stroke="#74838f" stroke-width="0.0375" d="M 32 1 L 32 0" />
  
  
  
  <path stroke="#74838f" stroke-width="0.0375" d="M 32 1 L 33 0" />
  
  
  
  <path stroke="#74838f" stroke-width="0.0375" d="M 33 1 L 33 0" />
  
  
  
  <path stroke="#74838f" stroke-width="0.0375" d="M 34 1 L 34 0" />
  
  
  
  <path stroke="#74838f" stroke-width="0.0375" d="M 35 1 L 35 0" />
  
  
  
  <path stroke="#74838f" stroke-width="0.0375" d="M 39 1 L 40 1" />
  
  
  
  <path stroke="#74838f" stroke-width="0.0375" d="M 40 1 L 41 2" />
  
  
  
  <path stroke="#74838f" stroke-width="0.0375" d="M 44 1 L 44 0" />
  
  
  
  <path stroke="#74838f" stroke-width="0.0375" d="M 44 1 L 45 0" />
  
  
  
  <path stroke="#74838f" stroke-width="0.0375" d="M 45 1 L 45 0" />
  
  
  
  <path stroke="#74838f" stroke-width="0.0375" d="M 46 1 L 46 0" />
  
  
  
  <path stroke="#74838f" stroke-width="0.0375" d="M 47 1 L 47 0" />
  
  
  
  <path stroke="#74838f" stroke-width="0.0375" d="M 2 2 L 3 1" />
  
  
  
  <path stroke="#74838f" stroke-width="0.0375" d="M 9 2 L 9 1" />
  
  
  
  <path stroke="#74838f" stroke-width="0.0375" d="M 10 2 L 10 1" />
  
  
  
  <path stroke="#74838f" stroke-width="0.0375" d="M 14 2 L 15 1" />
  
  
  
  <path stroke="#74838f" stroke-width="0.0375" d="M 21 2 L 21 1" />
  
  
  
  <path stroke="#74838f" stroke-width="0.0375" d="M 22 2 L 22 1" />
  
  
  
  <path stroke="#74838f" stroke-width="0.0375" d="M 26 2 L 27 1" />
  
  
  
  <path stroke="#74838f" stroke-width="0.0375" d="M 33 2 L 33 1" />
  
  
  
  <path stroke="#74838f" stroke-width="0.0375" d="M 34 2 L 34 1" />
  
  
  
  <path stroke="#74838f" stroke-width="0.0375" d="M 38 2 L 39 1" />
  
  
  
  <path stroke="#74838f" stroke-width="0.0375" d="M 45 2 L 45 1" />
  
  
  
  <path stroke="#74838f" stroke-width="0.0375" d="M 46 2 L 46 1" />
  
  
  
  <path stroke="#74838f" stroke-width="0.0375" d="M 0 3 L 0 2" />
  
  
  
  <path stroke="#74838f" stroke-width="0.0375" d="M 2 3 L 2 2" />
  
  
  
  <path stroke="#74838f" stroke-width="0.0375" d="M 2 3 L 3 4" />
  
  
  
  <path stroke="#74838f" stroke-width="0.0375" d="M 5 3 L 5 2" />
  
  
  
  <path stroke="#74838f" stroke-width="0.0375" d="M 7 3 L 7 2" />
  
  
  
  <path stroke="#74838f" stroke-width="0.0375" d="M 9 3 L 9 2" />
  
  
  
  <path stroke="#74838f" stroke-width="0.0375" d="M 10 3 L 10 2" />
  
  
  
  <path stroke="#74838f" stroke-width="0.0375" d="M 12 3 L 12 2" />
  
  
  
  <path stroke="#74838f" stroke-width="0.0375" d="M 14 3 L 14 2" />
  
  
  
  <path stroke="#74838f" stroke-width="0.0375" d="M 14 3 L 15 4" />
  
  
  
  <path stroke="#74838f" stroke-width="0.0375" d="M 17 3 L 17 2" />
  
  
  
  <path stroke="#74838f" stroke-width="0.0375" d="M 19 3 L 19 2" />
  
  
  
  <path stroke="#74838f" stroke-width="0.0375" d="M 21 3 L 21 2" />
  
  
  
  <path stroke="#74838f" stroke-width="0.0375" d="M 22 3 L 22 2" />
  
  
  
  <path stroke="#74838f" stroke-width="0.0375" d="M 24 3 L 24 2" />
  
  
  
  <path stroke="#74838f" stroke-width="0.0375" d="M 26 3 L 26 2" />
  
  
  
  <path stroke="#74838f" stroke-width="0.0375" d="M 26 3 L 27 4" />
  
  
  
  <path stroke="#74838f" stroke-width="0.0375" d="M 29 3 L 29 2" />
  
  
  
  <path stroke="#74838f" stroke-width="0.0375" d="M 31 3 L 31 2" />
  
  
  
  <path stroke="#74838f" stroke-width="0.0375" d="M 33 3 L 33 2" />
  
  
  
  <path stroke="#74838f" stroke-width="0.0375" d="M 34 3 L 34 2" />
  
  
  
  <path stroke="#74838f" stroke-width="0.0375" d="M 36 3 L 36 2" />
  
  
  
  <path stroke="#74838f" stroke-width="0.0375" d="M 38 3 L 38 2" />
  
  
  
  <path stroke="#74838f" stroke-width="0.0375" d="M 38 3 L 39 4" />
  
  
  
  <path stroke="#74838f" stroke-width="0.0375" d="M 41 3 L 41 2" />
  
  
  
  <path stroke="#74838f" stroke-width="0.0375" d="M 43 3 L 43 2" />
  
  
  
  <path stroke="#74838f" stroke-width="0.0375" d="M 45 3 L 45 2" />
  
  
  
  <path stroke="#74838f" stroke-width="0.0375" d="M 46 3 L 46 2" />
  
  
  
  <path stroke="#74838f" stroke-width="0.0375" d="M 48 3 L 48 2" />
  
  
  
  <path stroke="#74838f" stroke-width="0.0375" d="M 0 4 L 1 4" />
  
  
  
  <path stroke="#74838f" stroke-width="0.0375" d="M 3 4 L 4 4" />
  
  
  
  <path stroke="#74838f" stroke-width="0.0375" d="M 4 4 L 5 3" />
  
  
  
  <path stroke="#74838f" stroke-width="0.0375" d="M 6 4 L 7 4" />
  
  
  
  <path stroke="#74838f" stroke-width="0.0375" d="M 7 4 L 8 4" />
  
  
  
  <path stroke="#74838f" stroke-width="0.0375" d="M 8 4 L 9 5" />
  
  
  
  <path stroke="#74838f" stroke-width="0.0375" d="M 9 4 L 9 3" />
  
  
  
  <path stroke="#74838f" stroke-width="0.0375" d="M 10 4 L 10 3" />
  
  
  
  <path stroke="#74838f" stroke-width="0.0375" d="M 11 4 L 12 4" />
  
  
  
  <path stroke="#74838f" stroke-width="0.0375" d="M 12 4 L 13 4" />
  
  
  
  <path stroke="#74838f" stroke-width="0.0375" d="M 15 4 L 16 4" />
  
  
  
  <path stroke="#74838f" stroke-width="0.0375" d="M 16 4 L 17 3" />
  
  
  
  <path stroke="#74838f" stroke-width="0.0375" d="M 18 4 L 19 4" />
  
  
  
  <path stroke="#74838f" stroke-width="0.0375" d="M 19 4 L 20 4" />
  
  
  
  <path stroke="#74838f" stroke-width="0.0375" d="M 20 4 L 21 5" />
  
  
  
  <path stroke="#74838f" stroke-width="0.0375" d="M 21 4 L 21 3" />
  
  
  
  <path stroke="#74838f" stroke-width="0.0375" d="M 22 4 L 22 3" />
  
  
  
  <path stroke="#74838f" stroke-width="0.0375" d="M 23 4 L 24 4" />
  
  
  
  <path stroke="#74838f" stroke-width="0.0375" d="M 24 4 L 25 4" />
  
  
  
  <path stroke="#74838f" stroke-width="0.0375" d="M 27 4 L 28 4" />
  
  
  
  <path stroke="#74838f" stroke-width="0.0375" d="M 28 4 L 29 3" />
  
  
  
  <path stroke="#74838f" stroke-width="0.0375" d="M 30 4 L 31 4" />
  
  
  
  <path stroke="#74838f" stroke-width="0.0375" d="M 31 4 L 32 4" />
  
  
  
  <path stroke="#74838f" stroke-width="0.0375" d="M 32 4 L 33 5" />
  
  
  
  <path stroke="#74838f" stroke-width="0.0375" d="M 33 4 L 33 3" />
  
  
  
  <path stroke="#74838f" stroke-width="0.0375" d="M 34 4 L 34 3" />
  
  
  
  <path stroke="#74838f" stroke-width="0.0375" d="M 35 4 L 36 4" />
  
  
  
  <path stroke="#74838f" stroke-width="0.0375" d="M 36 4 L 37 4" />
  
  
  
  <path stroke="#74838f" stroke-width="0.0375" d="M 39 4 L 40 4" />
  
  
  
  <path stroke="#74838f" stroke-width="0.0375" d="M 40 4 L 41 3" />
  
  
  
  <path stroke="#74838f" stroke-width="0.0375" d="M 42 4 L 43 4" />
  
  
  
  <path stroke="#74838f" stroke-width="0.0375" d="M 43 4 L 44 4" />
  
  
  
  <path stroke="#74838f" stroke-width="0.0375" d="M 44 4 L 45 5" />
  
  
  
  <path stroke="#74838f" stroke-width="0.0375" d="M 45 4 L 45 3" />
  
  
  
  <path stroke="#74838f" stroke-width="0.0375" d="M 46 4 L 46 3" />
  
  
  
  <path stroke="#74838f" stroke-width="0.0375" d="M 47 4 L 48 4" />
  
  
  
  <path stroke="#74838f" stroke-width="0.0375" d="M 0 5 L 1 6" />
  
  
  
  <path stroke="#74838f" stroke-width="0.0375" d="M 1 5 L 1 4" />
  
  
  
  <path stroke="#74838f" stroke-width="0.0375" d="M 6 5 L 6 4" />
  
  
  
  <path stroke="#74838f" stroke-width="0.0375" d="M 9 5 L 9 4" />
  
  
  
  <path stroke="#74838f" stroke-width="0.0375" d="M 10 5 L 10 4" />
  
  
  
  <path stroke="#74838f" stroke-width="0.0375" d="M 10 5 L 11 4" />
  
  
  
  <path stroke="#74838f" stroke-width="0.0375" d="M 12 5 L 13 6" />
  
  
  
  <path stroke="#74838f" stroke-width="0.0375" d="M 13 5 L 13 4" />
  
  
  
  <path stroke="#74838f" stroke-width="0.0375" d="M 18 5 L 18 4" />
  
  
  
  <path stroke="#74838f" stroke-width="0.0375" d="M 21 5 L 21 4" />
  
  
  
  <path stroke="#74838f" stroke-width="0.0375" d="M 22 5 L 22 4" />
  
  
  
  <path stroke="#74838f" stroke-width="0.0375" d="M 22 5 L 23 4" />
  
  
  
  <path stroke="#74838f" stroke-width="0.0375" d="M 24 5 L 25 6" />
  
  
  
  <path stroke="#74838f" stroke-width="0.0375" d="M 25 5 L 25 4" />
  
  
  
  <path stroke="#74838f" stroke-width="0.0375" d="M 30 5 L 30 4" />
  
  
  
  <path stroke="#74838f" stroke-width="0.0375" d="M 33 5 L 33 4" />
  
  
  
  <path stroke="#74838f" stroke-width="0.0375" d="M 34 5 L 34 4" />
  
  
  
  <path stroke="#74838f" stroke-width="0.0375" d="M 34 5 L 35 4" />
  
  
  
  <path stroke="#74838f" stroke-width="0.0375" d="M 36 5 L 37 6" />
  
  
  
  <path stroke="#74838f" stroke-width="0.0375" d="M 37 5 L 37 4" />
  
  
  
  <path stroke="#74838f" stroke-width="0.0375" d="M 42 5 L 42 4" />
  
  
  
  <path stroke="#74838f" stroke-width="0.0375" d="M 45 5 L 45 4" />
  
  
  
  <path stroke="#74838f" stroke-width="0.0375" d="M 46 5 L 46 4" />
  
  
  
  <path stroke="#74838f" stroke-width="0.0375" d="M 46 5 L 47 4" />
  
  
  
  <path stroke="#74838f" stroke-width="0.0375" d="M 0 6 L 0 5" />
  
  
  
  <path stroke="#74838f" stroke-width="0.0375" d="M 1 6 L 1 5" />
  
  
  
  <path stroke="#74838f" stroke-width="0.0375" d="M 3 6 L 4 6" />
  
  
  
  <path stroke="#74838f" stroke-width="0.0375" d="M 6 6 L 6 5" />
  
  
  
  <path stroke="#74838f" stroke-width="0.0375" d="M 6 6 L 7 5" />
  
  
  
  <path stroke="#74838f" stroke-width="0.0375" d="M 7 6 L 7 5" />
  
  
  
  <path stroke="#74838f" stroke-width="0.0375" d="M 12 6 L 12 5" />
  
  
  
  <path stroke="#74838f" stroke-width="0.0375" d="M 13 6 L 13 5" />
  
  
  
  <path stroke="#74838f" stroke-width="0.0375" d="M 15 6 L 16 6" />
  
  
  
  <path stroke="#74838f" stroke-width="0.0375" d="M 18 6 L 18 5" />
  
  
  
  <path stroke="#74838f" stroke-width="0.0375" d="M 18 6 L 19 5" />
  
  
  
  <path stroke="#74838f" stroke-width="0.0375" d="M 19 6 L 19 5" />
  
  
  
  <path stroke="#74838f" stroke-width="0.0375" d="M 24 6 L 24 5" />
  
  
  
  <path stroke="#74838f" stroke-width="0.0375" d="M 25 6 L 25 5" />
  
  
  
  <path stroke="#74838f" stroke-width="0.0375" d="M 27 6 L 28 6" />
  
  
  
  <path stroke="#74838f" stroke-width="0.0375" d="M 30 6 L 30 5" />
  
  
  
  <path stroke="#74838f" stroke-width="0.0375" d="M 30 6 L 31 5" />
  
  
  
  <path stroke="#74838f" stroke-width="0.0375" d="M 31 6 L 31 5" />
  
  
  
  <path stroke="#74838f" stroke-width="0.0375" d="M 36 6 L 36 5" />
  
  
  
  <path stroke="#74838f" stroke-width="0.0375" d="M 37 6 L 37 5" />
  
  
  
  <path stroke="#74838f" stroke-width="0.0375" d="M 39 6 L 40 6" />
  
  
  
  <path stroke="#74838f" stroke-width="0.0375" d="M 42 6 L 42 5" />
  
  
  
  <path stroke="#74838f" stroke-width="0.0375" d="M 42 6 L 43 5" />
  
  
  
  <path stroke="#74838f" stroke-width="0.0375" d="M 43 6 L 43 5" />
  
  
  
  <path stroke="#74838f" stroke-width="0.0375" d="M 48 6 L 48 5" />
  
  
  
  <path stroke="#74838f" stroke-width="0.0375" d="M 0 7 L 0 6" />
  
  
  
  <path stroke="#74838f" stroke-width="0.0375" d="M 3 7 L 3 6" />
  
  
  
  <path stroke="#74838f" stroke-width="0.0375" d="M 3 7 L 4 7" />
  
  
  
  <path stroke="#74838f" stroke-width="0.0375" d="M 4 7 L 4 6" />
  
  
  
  <path stroke="#74838f" stroke-width="0.0375" d="M 7 7 L 7 6" />
  
  
  
  <path stroke="#74838f" stroke-width="0.0375" d="M 9 7 L 10 7" />
  
  
  
  <path stroke="#74838f" stroke-width="0.0375" d="M 12 7 L 12 6" />
  
  
  
  <path stroke="#74838f" stroke-width="0.0375" d="M 15 7 L 15 6" />
  
  
  
  <path stroke="#74838f" stroke-width="0.0375" d="M 15 7 L 16 7" />
  
  
  
  <path stroke="#74838f" stroke-width="0.0375" d="M 16 7 L 16 6" />
  
  
  
  <path stroke="#74838f" stroke-width="0.0375" d="M 19 7 L 19 6" />
  
  
  
  <path stroke="#74838f" stroke-width="0.0375" d="M 21 7 L 22 7" />
  
  
  
  <path stroke="#74838f" stroke-width="0.0375" d="M 24 7 L 24 6" />
  
  
  
  <path stroke="#74838f" stroke-width="0.0375" d="M 27 7 L 27 6" />
  
  
  
  <path stroke="#74838f" stroke-width="0.0375" d="M 27 7 L 28 7" />
  
  
  
  <path stroke="#74838f" stroke-width="0.0375" d="M 28 7 L 28 6" />
  
  
  
  <path stroke="#74838f" stroke-width="0.0375" d="M 31 7 L 31 6" />
  
  
  
  <path stroke="#74838f" stroke-width="0.0375" d="M 33 7 L 34 7" />
  
  
  
  <path stroke="#74838f" stroke-width="0.0375" d="M 36 7 L 36 6" />
  
  
  
  <path stroke="#74838f" stroke-width="0.0375" d="M 39 7 L 39 6" />
  
  
  
  <path stroke="#74838f" stroke-width="0.0375" d="M 39 7 L 40 7" />
  
  
  
  <path stroke="#74838f" stroke-width="0.0375" d="M 40 7 L 40 6" />
  
  
  
  <path stroke="#74838f" stroke-width="0.0375" d="M 43 7 L 43 6" />
  
  
  
  <path stroke="#74838f" stroke-width="0.0375" d="M 45 7 L 46 7" />
  
  
  
  <path stroke="#74838f" stroke-width="0.0375" d="M 48 7 L 48 6" />
  
  
  
  <path stroke="#74838f" stroke-width="0.0375" d="M 0 8 L 0 7" />
  
  
  
  <path stroke="#74838f" stroke-width="0.0375" d="M 1 8 L 2 8" />
  
  
  
  <path stroke="#74838f" stroke-width="0.0375" d="M 2 8 L 3 8" />
  
  
  
  <path stroke="#74838f" stroke-width="0.0375" d="M 4 8 L 5 8" />
  
  
  
  <path stroke="#74838f" stroke-width="0.0375" d="M 5 8 L 6 8" />
  
  
  
  <path stroke="#74838f" stroke-width="0.0375" d="M 6 8 L 7 9" />
  
  
  
  <path stroke="#74838f" stroke-width="0.0375" d="M 7 8 L 7 7" />
  
  
  
  <path stroke="#74838f" stroke-width="0.0375" d="M 9 8 L 9 7" />
  
  
  
  <path stroke="#74838f" stroke-width="0.0375" d="M 10 8 L 10 7" />
  
  
  
  <path stroke="#74838f" stroke-width="0.0375" d="M 12 8 L 12 7" />
  
  
  
  <path stroke="#74838f" stroke-width="0.0375" d="M 13 8 L 14 8" />
  
  
  
  <path stroke="#74838f" stroke-width="0.0375" d="M 14 8 L 15 8" />
  
  
  
  <path stroke="#74838f" stroke-width="0.0375" d="M 16 8 L 17 8" />
  
  
  
  <path stroke="#74838f" stroke-width="0.0375" d="M 17 8 L 18 8" />
  
  
  
  <path stroke="#74838f" stroke-width="0.0375" d="M 18 8 L 19 9" />
  
  
  
  <path stroke="#74838f" stroke-width="0.0375" d="M 19 8 L 19 7" />
  
  
  
  <path stroke="#74838f" stroke-width="0.0375" d="M 21 8 L 21 7" />
  
  
  
  <path stroke="#74838f" stroke-width="0.0375" d="M 22 8 L 22 7" />
  
  
  
  <path stroke="#74838f" stroke-width="0.0375" d="M 24 8 L 24 7" />
  
  
  
  <path stroke="#74838f" stroke-width="0.0375" d="M 25 8 L 26 8" />
  
  
  
  <path stroke="#74838f" stroke-width="0.0375" d="M 26 8 L 27 8" />
  
  
  
  <path stroke="#74838f" stroke-width="0.0375" d="M 28 8 L 29 8" />
  
  
  
  <path stroke="#74838f" stroke-width="0.0375" d="M 29 8 L 30 8" />
  
  
  
  <path stroke="#74838f" stroke-width="0.0375" d="M 30 8 L 31 9" />
  
  
  
  <path stroke="#74838f" stroke-width="0.0375" d="M 31 8 L 31 7" />
  
  
  
  <path stroke="#74838f" stroke-width="0.0375" d="M 33 8 L 33 7" />
  
  
  
  <path stroke="#74838f" stroke-width="0.0375" d="M 34 8 L 34 7" />
  
  
  
  <path stroke="#74838f" stroke-width="0.0375" d="M 36 8 L 36 7" />
  
  
  
  <path stroke="#74838f" stroke-width="0.0375" d="M 37 8 L 38 8" />
  
  
  
  <path stroke="#74838f" stroke-width="0.0375" d="M 38 8 L 39 8" />
  
  
  
  <path stroke="#74838f" stroke-width="0.0375" d="M 40 8 L 41 8" />
  
  
  
  <path stroke="#74838f" stroke-width="0.0375" d="M 41 8 L 42 8" />
  
  
  
  <path stroke="#74838f" stroke-width="0.0375" d="M 42 8 L 43 9" />
  
  
  
  <path stroke="#74838f" stroke-width="0.0375" d="M 43 8 L 43 7" />
  
  
  
  <path stroke="#74838f" stroke-width="0.0375" d="M 45 8 L 45 7" />
  
  
  
  <path stroke="#74838f" stroke-width="0.0375" d="M 46 8 L 46 7" />
  
  
  
  <path stroke="#74838f" stroke-width="0.0375" d="M 48 8 L 48 7" />
  
  
  
  <path stroke="#74838f" stroke-width="0.0375" d="M 0 9 L 0 8" />
  
  
  
  <path stroke="#74838f" stroke-width="0.0375" d="M 0 9 L 1 8" />
  
  
  
  <path stroke="#74838f" stroke-width="0.0375" d="M 2 9 L 3 10" />
  
  
  
  <path stroke="#74838f" stroke-width="0.0375" d="M 3 9 L 3 8" />
  
  
  
  <path stroke="#74838f" stroke-width="0.0375" d="M 4 9 L 4 8" />
  
  
  
  <path stroke="#74838f" stroke-width="0.0375" d="M 7 9 L 7 8" />
  
  
  
  <path stroke="#74838f" stroke-width="0.0375" d="M 9 9 L 9 8" />
  
  
  
  <path stroke="#74838f" stroke-width="0.0375" d="M 10 9 L 10 8" />
  
  
  
  <path stroke="#74838f" stroke-width="0.0375" d="M 12 9 L 12 8" />
  
  
  
  <path stroke="#74838f" stroke-width="0.0375" d="M 12 9 L 13 8" />
  
  
  
  <path stroke="#74838f" stroke-width="0.0375" d="M 14 9 L 15 10" />
  
  
  
  <path stroke="#74838f" stroke-width="0.0375" d="M 15 9 L 15 8" />
  
  
  
  <path stroke="#74838f" stroke-width="0.0375" d="M 16 9 L 16 8" />
  
  
  
  <path stroke="#74838f" stroke-width="0.0375" d="M 19 9 L 19 8" />
  
  
  
  <path stroke="#74838f" stroke-width="0.0375" d="M 21 9 L 21 8" />
  
  
  
  <path stroke="#74838f" stroke-width="0.0375" d="M 22 9 L 22 8" />
  
  
  
  <path stroke="#74838f" stroke-width="0.0375" d="M 24 9 L 24 8" />
  
  
  
  <path stroke="#74838f" stroke-width="0.0375" d="M 24 9 L 25 8" />
  
  
  
  <path stroke="#74838f" stroke-width="0.0375" d="M 26 9 L 27 10" />
  
  
  
  <path stroke="#74838f" stroke-width="0.0375" d="M 27 9 L 27 8" />
  
  
  
  <path stroke="#74838f" stroke-width="0.0375" d="M 28 9 L 28 8" />
  
  
  
  <path stroke="#74838f" stroke-width="0.0375" d="M 31 9 L 31 8" />
  
  
  
  <path stroke="#74838f" stroke-width="0.0375" d="M 33 9 L 33 8" />
  
  
  
  <path stroke="#74838f" stroke-width="0.0375" d="M 34 9 L 34 8" />
  
  
  
  <path stroke="#74838f" stroke-width="0.0375" d="M 36 9 L 36 8" />
  
  
  
  <path stroke="#74838f" stroke-width="0.0375" d="M 36 9 L 37 8" />
  
  
  
  <path stroke="#74838f" stroke-width="0.0375" d="M 38 9 L 39 10" />
  
  
  
  <path stroke="#74838f" stroke-width="0.0375" d="M 39 9 L 39 8" />
  
  
  
  <path stroke="#74838f" stroke-width="0.0375" d="M 40 9 L 40 8" />
  
  
  
  <path stroke="#74838f" stroke-width="0.0375" d="M 43 9 L 43 8" />
  
  
  
  <path stroke="#74838f" stroke-width="0.0375" d="M 45 9 L 45 8" />
  
  
  
  <path stroke="#74838f" stroke-width="0.0375" d="M 46 9 L 46 8" />
  
  
  
  <path stroke="#74838f" stroke-width="0.0375" d="M 48 9 L 48 8" />
  
  
  
  <path stroke="#74838f" stroke-width="0.0375" d="M 2 10 L 2 9" />
  
  
  
  <path stroke="#74838f" stroke-width="0.0375" d="M 3 10 L 3 9" />
  
  
  
  <path stroke="#74838f" stroke-width="0.0375" d="M 4 10 L 4 9" />
  
  
  
  <path stroke="#74838f" stroke-width="0.0375" d="M 4 10 L 5 9" />
  
  
  
  <path stroke="#74838f" stroke-width="0.0375" d="M 5 10 L 5 9" />
  
  
  
  <path stroke="#74838f" stroke-width="0.0375" d="M 8 10 L 9 10" />
  
  
  
  <path stroke="#74838f" stroke-width="0.0375" d="M 9 10 L 9 9" />
  
  
  
  <path stroke="#74838f" stroke-width="0.0375" d="M 10 10 L 10 9" />
  
  
  
  <path stroke="#74838f" stroke-width="0.0375" d="M 10 10 L 11 10" />
  
  
  
  <path stroke="#74838f" stroke-width="0.0375" d="M 14 10 L 14 9" />
  
  
  
  <path stroke="#74838f" stroke-width="0.0375" d="M 15 10 L 15 9" />
  
  
  
  <path stroke="#74838f" stroke-width="0.0375" d="M 16 10 L 16 9" />
  
  
  
  <path stroke="#74838f" stroke-width="0.0375" d="M 16 10 L 17 9" />
  
  
  
  <path stroke="#74838f" stroke-width="0.0375" d="M 17 10 L 17 9" />
  
  
  
  <path stroke="#74838f" stroke-width="0.0375" d="M 20 10 L 21 10" />
  
  
  
  <path stroke="#74838f" stroke-width="0.0375" d="M 21 10 L 21 9" />
  
  
  
  <path stroke="#74838f" stroke-width="0.0375" d="M 22 10 L 22 9" />
  
  
  
  <path stroke="#74838f" stroke-width="0.0375" d="M 22 10 L 23 10" />
  
  
  
  <path stroke="#74838f" stroke-width="0.0375" d="M 26 10 L 26 9" />
  
  
  
  <path stroke="#74838f" stroke-width="0.0375" d="M 27 10 L 27 9" />
  
  
  
  <path stroke="#74838f" stroke-width="0.0375" d="M 28 10 L 28 9" />
  
  
  
  <path stroke="#74838f" stroke-width="0.0375" d="M 28 10 L 29 9" />
  
  
  
  <path stroke="#74838f" stroke-width="0.0375" d="M 29 10 L 29 9" />
  
  
  
  <path stroke="#74838f" stroke-width="0.0375" d="M 32 10 L 33 10" />
  
  
  
  <path stroke="#74838f" stroke-width="0.0375" d="M 33 10 L 33 9" />
  
  
  
  <path stroke="#74838f" stroke-width="0.0375" d="M 34 10 L 34 9" />
  
  
  
  <path stroke="#74838f" stroke-width="0.0375" d="M 34 10 L 35 10" />
  
  
  
  <path stroke="#74838f" stroke-width="0.0375" d="M 38 10 L 38 9" />
  
  
  
  <path stroke="#74838f" stroke-width="0.0375" d="M 39 10 L 39 9" />
  
  
  
  <path stroke="#74838f" stroke-width="0.0375" d="M 40 10 L 40 9" />
  
  
  
  <path stroke="#74838f" stroke-width="0.0375" d="M 40 10 L 41 9" />
  
  
  
  <path stroke="#74838f" stroke-width="0.0375" d="M 41 10 L 41 9" />
  
  
  
  <path stroke="#74838f" stroke-width="0.0375" d="M 44 10 L 45 10" />
  
  
  
  <path stroke="#74838f" stroke-width="0.0375" d="M 45 10 L 45 9" />
  
  
  
  <path stroke="#74838f" stroke-width="0.0375" d="M 46 10 L 46 9" />
  
  
  
  <path stroke="#74838f" stroke-width="0.0375" d="M 46 10 L 47 10" />
  
  
  
  <path stroke="#74838f" stroke-width="0.0375" d="M 2 11 L 2 10" />
  
  
  
  <path stroke="#74838f" stroke-width="0.0375" d="M 4 11 L 5 12" />
  
  
  
  <path stroke="#74838f" stroke-width="0.0375" d="M 5 11 L 5 10" />
  
  
  
  <path stroke="#74838f" stroke-width="0.0375" d="M 8 11 L 8 10" />
  
  
  
  <path stroke="#74838f" stroke-width="0.0375" d="M 11 11 L 11 10" />
  
  
  
  <path stroke="#74838f" stroke-width="0.0375" d="M 14 11 L 14 10" />
  
  
  
  <path stroke="#74838f" stroke-width="0.0375" d="M 16 11 L 17 12" />
  
  
  
  <path stroke="#74838f" stroke-width="0.0375" d="M 17 11 L 17 10" />
  
  
  
  <path stroke="#74838f" stroke-width="0.0375" d="M 20 11 L 20 10" />
  
  
  
  <path stroke="#74838f" stroke-width="0.0375" d="M 23 11 L 23 10" />
  
  
  
  <path stroke="#74838f" stroke-width="0.0375" d="M 26 11 L 26 10" />
  
  
  
  <path stroke="#74838f" stroke-width="0.0375" d="M 28 11 L 29 12" />
  
  
  
  <path stroke="#74838f" stroke-width="0.0375" d="M 29 11 L 29 10" />
  
  
  
  <path stroke="#74838f" stroke-width="0.0375" d="M 32 11 L 32 10" />
  
  
  
  <path stroke="#74838f" stroke-width="0.0375" d="M 35 11 L 35 10" />
  
  
  
  <path stroke="#74838f" stroke-width="0.0375" d="M 38 11 L 38 10" />
  
  
  
  <path stroke="#74838f" stroke-width="0.0375" d="M 40 11 L 41 12" />
  
  
  
  <path stroke="#74838f" stroke-width="0.0375" d="M 41 11 L 41 10" />
  
  
  
  <path stroke="#74838f" stroke-width="0.0375" d="M 44 11 L 44 10" />
  
  
  
  <path stroke="#74838f" stroke-width="0.0375" d="M 47 11 L 47 10" />
  
  
  
  <path stroke="#74838f" stroke-width="0.0375" d="M 0 12 L 1 12" />
  
  
  
  <path stroke="#74838f" stroke-width="0.0375" d="M 1 12 L 2 12" />
  
  
  
  <path stroke="#74838f" stroke-width="0.0375" d="M 2 12 L 2 11" />
  
  
  
  <path stroke="#74838f" stroke-width="0.0375" d="M 2 12 L 3 11" />
  
  
  
  <path stroke="#74838f" stroke-width="0.0375" d="M 2 12 L 3 12" />
  
  
  
  <path stroke="#74838f" stroke-width="0.0375" d="M 3 12 L 3 11" />
  
  
  
  <path stroke="#74838f" stroke-width="0.0375" d="M 3 12 L 4 12" />
  
  
  
  <path stroke="#74838f" stroke-width="0.0375" d="M 4 12 L 4 11" />
  
  
  
  <path stroke="#74838f" stroke-width="0.0375" d="M 4 12 L 5 12" />
  
  
  
  <path stroke="#74838f" stroke-width="0.0375" d="M 5 12 L 5 11" />
  
  
  
  <path stroke="#74838f" stroke-width="0.0375" d="M 5 12 L 6 12" />
  
  
  
  <path stroke="#74838f" stroke-width="0.0375" d="M 6 12 L 7 12" />
  
  
  
  <path stroke="#74838f" stroke-width="0.0375" d="M 7 12 L 8 12" />
  
  
  
  <path stroke="#74838f" stroke-width="0.0375" d="M 8 12 L 8 11" />
  
  
  
  <path stroke="#74838f" stroke-width="0.0375" d="M 8 12 L 9 12" />
  
  
  
  <path stroke="#74838f" stroke-width="0.0375" d="M 9 12 L 10 12" />
  
  
  
  <path stroke="#74838f" stroke-width="0.0375" d="M 10 12 L 11 12" />
  
  
  
  <path stroke="#74838f" stroke-width="0.0375" d="M 11 12 L 11 11" />
  
  
  
  <path stroke="#74838f" stroke-width="0.0375" d="M 11 12 L 12 12" />
  
  
  
  <path stroke="#74838f" stroke-width="0.0375" d="M 12 12 L 13 12" />
  
  
  
  <path stroke="#74838f" stroke-width="0.0375" d="M 13 12 L 14 12" />
  
  
  
  <path stroke="#74838f" stroke-width="0.0375" d="M 14 12 L 14 11" />
  
  
  
  <path stroke="#74838f" stroke-width="0.0375" d="M 14 12 L 15 11" />
  
  
  
  <path stroke="#74838f" stroke-width="0.0375" d="M 14 12 L 15 12" />
  
  
  
  <path stroke="#74838f" stroke-width="0.0375" d="M 15 12 L 15 11" />
  
  
  
  <path stroke="#74838f" stroke-width="0.0375" d="M 15 12 L 16 12" />
  
  
  
  <path stroke="#74838f" stroke-width="0.0375" d="M 16 12 L 16 11" />
  
  
  
  <path stroke="#74838f" stroke-width="0.0375" d="M 16 12 L 17 12" />
  
  
  
  <path stroke="#74838f" stroke-width="0.0375" d="M 17 12 L 17 11" />
  
  
  
  <path stroke="#74838f" stroke-width="0.0375" d="M 17 12 L 18 12" />
  
  
  
  <path stroke="#74838f" stroke-width="0.0375" d="M 18 12 L 19 12" />
  
  
  
  <path stroke="#74838f" stroke-width="0.0375" d="M 19 12 L 20 12" />
  
  
  
  <path stroke="#74838f" stroke-width="0.0375" d="M 20 12 L 20 11" />
  
  
  
  <path stroke="#74838f" stroke-width="0.0375" d="M 20 12 L 21 12" />
  
  
  
  <path stroke="#74838f" stroke-width="0.0375" d="M 21 12 L 22 12" />
  
  
  
  <path stroke="#74838f" stroke-width="0.0375" d="M 22 12 L 23 12" />
  
  
  
  <path stroke="#74838f" stroke-width="0.0375" d="M 23 12 L 23 11" />
  
  
  
  <path stroke="#74838f" stroke-width="0.0375" d="M 23 12 L 24 12" />
  
  
  
  <path stroke="#74838f" stroke-width="0.0375" d="M 24 12 L 25 12" />
  
  
  
  <path stroke="#74838f" stroke-width="0.0375" d="M 25 12 L 26 12" />
  
  
  
  <path stroke="#74838f" stroke-width="0.0375" d="M 26 12 L 26 11" />
  
  
  
  <path stroke="#74838f" stroke-width="0.0375" d="M 26 12 L 27 11" />
  
  
  
  <path stroke="#74838f" stroke-width="0.0375" d="M 26 12 L 27 12" />
  
  
  
  <path stroke="#74838f" stroke-width="0.0375" d="M 27 12 L 27 11" />
  
  
  
  <path stroke="#74838f" stroke-width="0.0375" d="M 27 12 L 28 12" />
  
  
  
  <path stroke="#74838f" stroke-width="0.0375" d="M 28 12 L 28 11" />
  
  
  
  <path stroke="#74838f" stroke-width="0.0375" d="M 28 12 L 29 12" />
  
  
  
  <path stroke="#74838f" stroke-width="0.0375" d="M 29 12 L 29 11" />
  
  
  
  <path stroke="#74838f" stroke-width="0.0375" d="M 29 12 L 30 12" />
  
  
  
  <path stroke="#74838f" stroke-width="0.0375" d="M 30 12 L 31 12" />
  
  
  
  <path stroke="#74838f" stroke-width="0.0375" d="M 31 12 L 32 12" />
  
  
  
  <path stroke="#74838f" stroke-width="0.0375" d="M 32 12 L 32 11" />
  
  
  
  <path stroke="#74838f" stroke-width="0.0375" d="M 32 12 L 33 12" />
  
  
  
  <path stroke="#74838f" stroke-width="0.0375" d="M 33 12 L 34 12" />
  
  
  
  <path stroke="#74838f" stroke-width="0.0375" d="M 34 12 L 35 12" />
  
  
  
  <path stroke="#74838f" stroke-width="0.0375" d="M 35 12 L 35 11" />
  
  
  
  <path stroke="#74838f" stroke-width="0.0375" d="M 35 12 L 36 12" />
  
  
  
  <path stroke="#74838f" stroke-width="0.0375" d="M 36 12 L 37 12" />
  
  
  
  <path stroke="#74838f" stroke-width="0.0375" d="M 37 12 L 38 12" />
  
  
  
  <path stroke="#74838f" stroke-width="0.0375" d="M 38 12 L 38 11" />
  
  
  
  <path stroke="#74838f" stroke-width="0.0375" d="M 38 12 L 39 11" />
  
  
  
  <path stroke="#74838f" stroke-width="0.0375" d="M 38 12 L 39 12" />
  
  
  
  <path stroke="#74838f" stroke-width="0.0375" d="M 39 12 L 39 11" />
  
  
  
  <path stroke="#74838f" stroke-width="0.0375" d="M 39 12 L 40 12" />
  
  
  
  <path stroke="#74838f" stroke-width="0.0375" d="M 40 12 L 40 11" />
  
  
  
  <path stroke="#74838f" stroke-width="0.0375" d="M 40 12 L 41 12" />
  
  
  
  <path stroke="#74838f" stroke-width="0.0375" d="M 41 12 L 41 11" />
  
  
  
  <path stroke="#74838f" stroke-width="0.0375" d="M 41 12 L 42 12" />
  
  
  
  <path stroke="#74838f" stroke-width="0.0375" d="M 42 12 L 43 12" />
  
  
  
  <path stroke="#74838f" stroke-width="0.0375" d="M 43 12 L 44 12" />
  
  
  
  <path stroke="#74838f" stroke-width="0.0375" d="M 44 12 L 44 11" />
  
  
  
  <path stroke="#74838f" stroke-width="0.0375" d="M 44 12 L 45 12" />
  
  
  
  <path stroke="#74838f" stroke-width="0.0375" d="M 45 12 L 46 12" />
  
  
  
  <path stroke="#74838f" stroke-width="0.0375" d="M 46 12 L 47 12" />
  
  
  
  <path stroke="#74838f" stroke-width="0.0375" d="M 47 12 L 47 11" />
  
  
  
  <path stroke="#74838f" stroke-width="0.0375" d="M 47 12 L 48 12" />
  
  <path stroke="#333333" d="M 27.5 -2 L 27.5 14" stroke-dasharray="0.1 0.1" stroke-linejoin="round" stroke-width="0.0375" fill="none" />
  <text 
    x="24"
    y="16"
    font-family="-apple-system, system-ui, BlinkMacSystemFont, Roboto"
    dominant-baseline="middle"
    text-anchor="middle"
    font-size="5%"
    fill="#74838f"
    font-weight="600"
    >
    TV(7) Period(12)
  </text>

</svg>

